<svg width="640" height="420" viewBox="0 0 640 420" fill="none" xmlns="http://www.w3.org/2000/svg">
  <defs>
    <linearGradient id="bg2" x1="0" y1="0" x2="640" y2="420" gradientUnits="userSpaceOnUse">
      <stop stop-color="#0B122B"/>
      <stop offset="1" stop-color="#111827"/>
    </linearGradient>
    <linearGradient id="ring" x1="180" y1="70" x2="460" y2="350" gradientUnits="userSpaceOnUse">
      <stop stop-color="#818CF8"/>
      <stop offset="1" stop-color="#22D3EE"/>
    </linearGradient>
    <linearGradient id="road2" x1="320" y1="118" x2="320" y2="360" gradientUnits="userSpaceOnUse">
      <stop stop-color="#334155"/>
      <stop offset="1" stop-color="#0F172A"/>
    </linearGradient>
  </defs>

  <rect x="1" y="1" width="638" height="418" rx="20" fill="url(#bg2)" stroke="#334155"/>

  <circle cx="320" cy="210" r="145" stroke="url(#ring)" stroke-width="12" opacity="0.85"/>

  <path d="M278 360L302 118H338L362 360H278Z" fill="url(#road2)"/>
  <rect x="314" y="138" width="12" height="32" rx="4" fill="#A5B4FC"/>
  <rect x="314" y="190" width="12" height="32" rx="4" fill="#A5B4FC"/>
  <rect x="314" y="242" width="12" height="32" rx="4" fill="#22D3EE"/>
  <rect x="314" y="294" width="12" height="32" rx="4" fill="#22D3EE"/>

  <g>
    <circle cx="178" cy="180" r="28" fill="#1E293B" stroke="#38BDF8"/>
    <circle cx="462" cy="180" r="28" fill="#1E293B" stroke="#38BDF8"/>
    <circle cx="178" cy="286" r="28" fill="#1E293B" stroke="#818CF8"/>
    <circle cx="462" cy="286" r="28" fill="#1E293B" stroke="#818CF8"/>

    <path d="M178 180L240 210" stroke="#22D3EE" stroke-width="3" stroke-dasharray="6 6"/>
    <path d="M462 180L400 210" stroke="#22D3EE" stroke-width="3" stroke-dasharray="6 6"/>
    <path d="M178 286L240 250" stroke="#A5B4FC" stroke-width="3" stroke-dasharray="6 6"/>
    <path d="M462 286L400 250" stroke="#A5B4FC" stroke-width="3" stroke-dasharray="6 6"/>
  </g>

  <text x="320" y="52" text-anchor="middle" font-family="Outfit, sans-serif" font-size="22" font-weight="800" fill="#E2E8F0">Community Connected by RoadFix</text>
  <text x="320" y="392" text-anchor="middle" font-family="Outfit, sans-serif" font-size="16" font-weight="600" fill="#CBD5E1">Report • Track • Resolve</text>
</svg>
